HIERARCHY
ROOT root
{
	OFFSET 0.000000 0.000000 0.000000
	CHANNELS 6 Xposition Yposition Zposition Zrotation Yrotation Xrotation
	JOINT lhip
	{
		OFFSET 0.058581 -0.082280 -0.017664
		CHANNELS 3 Zrotation Yrotation Xrotation
		JOINT lknee
		{
			OFFSET 0.043451 -0.386469 0.008037
			CHANNELS 3 Zrotation Yrotation Xrotation
			JOINT lankle
			{
				OFFSET -0.014790 -0.426874 -0.037428
				CHANNELS 3 Zrotation Yrotation Xrotation
				JOINT ltoe
				{
					OFFSET 0.041054 -0.060286 0.122042
					CHANNELS 3 Zrotation Yrotation Xrotation
					End Site
					{
						OFFSET 0.000000 0.000000 0.000000
					}
				}
			}
		}
	}
	JOINT rhip
	{
		OFFSET -0.060310 -0.090513 -0.013543
		CHANNELS 3 Zrotation Yrotation Xrotation
		JOINT rknee
		{
			OFFSET -0.043257 -0.383688 -0.004843
			CHANNELS 3 Zrotation Yrotation Xrotation
			JOINT rankle
			{
				OFFSET 0.019056 -0.420046 -0.034562
				CHANNELS 3 Zrotation Yrotation Xrotation
				JOINT rtoe
				{
					OFFSET -0.034840 -0.062106 0.130323
					CHANNELS 3 Zrotation Yrotation Xrotation
					End Site
					{
						OFFSET 0.000000 0.000000 0.000000
					}
				}
			}
		}
	}
	JOINT lowerback
	{
		OFFSET 0.004439 0.124404 -0.038385
		CHANNELS 3 Zrotation Yrotation Xrotation
		JOINT upperback
		{
			OFFSET 0.004488 0.137956 0.026820
			CHANNELS 3 Zrotation Yrotation Xrotation
			JOINT chest
			{
				OFFSET -0.002265 0.056032 0.002855
				CHANNELS 3 Zrotation Yrotation Xrotation
				JOINT lowerneck
				{
					OFFSET -0.013390 0.211636 -0.033468
					CHANNELS 3 Zrotation Yrotation Xrotation
					JOINT upperneck
					{
						OFFSET 0.010113 0.088937 0.050410
						CHANNELS 3 Zrotation Yrotation Xrotation
						End Site
						{
							OFFSET 0.000000 0.000000 0.000000
						}
					}
				}
				JOINT lclavicle
				{
					OFFSET 0.071702 0.114000 -0.018898
					CHANNELS 3 Zrotation Yrotation Xrotation
					JOINT lshoulder
					{
						OFFSET 0.122921 0.045205 -0.019046
						CHANNELS 3 Zrotation Yrotation Xrotation
						JOINT lelbow
						{
							OFFSET 0.255332 -0.015649 -0.022946
							CHANNELS 3 Zrotation Yrotation Xrotation
							JOINT lwrist
							{
								OFFSET 0.265709 0.012698 -0.007375
								CHANNELS 3 Zrotation Yrotation Xrotation
								End Site
								{
									OFFSET 0.000000 0.000000 0.000000
								}
							}
						}
					}
				}
				JOINT rclavicle
				{
					OFFSET -0.082954 0.112472 -0.023707
					CHANNELS 3 Zrotation Yrotation Xrotation
					JOINT rshoulder
					{
						OFFSET -0.113228 0.046853 -0.008472
						CHANNELS 3 Zrotation Yrotation Xrotation
						JOINT relbow
						{
							OFFSET -0.260127 -0.014369 -0.031269
							CHANNELS 3 Zrotation Yrotation Xrotation
							JOINT rwrist
							{
								OFFSET -0.269108 0.006794 -0.006027
								CHANNELS 3 Zrotation Yrotation Xrotation
								End Site
								{
									OFFSET 0.000000 0.000000 0.000000
								}
							}
						}
					}
				}
			}
		}
	}
}
MOTION
Frames: 14
Frame Time: 0.033333
0.545782 0.230737 0.996995 86.093165 4.165148 96.188944 6.832388 4.698300 -4.590752 3.478283 1.387787 -3.676266 -1.614992 9.600371 -4.816055 0.000000 -0.000000 0.000000 -0.202569 -0.471426 -11.722453 -2.253616 -0.917753 8.807990 5.713589 -3.774998 -6.386637 0.000000 -0.000000 0.000000 -1.363399 2.139312 -1.028777 2.347615 -0.358239 5.848275 1.234502 3.842451 -11.474162 4.831131 7.695133 3.432779 0.788565 6.743984 5.659943 -15.000990 -7.414557 -8.574913 -48.885816 -17.728110 16.476085 108.849188 -77.130052 -72.191641 -4.152655 -13.087858 19.431889 16.391072 20.843256 1.971262 34.466592 42.947064 16.598248 16.428999 68.097516 41.009259 4.396518 10.749268 -2.272924 
0.546080 0.230802 0.997032 86.056392 4.125353 96.145500 6.781705 4.680588 -4.568062 3.482660 1.418919 -3.589574 -1.580243 9.619979 -4.807083 0.000000 -0.000000 0.000000 -0.267469 -0.528382 -11.587721 -2.218319 -0.936685 8.664519 5.775327 -3.768960 -6.351470 0.000000 -0.000000 0.000000 -1.337242 2.163646 -1.176994 2.459944 -0.506073 5.792363 1.273278 3.820352 -11.358057 4.701182 7.995657 3.466145 0.942305 6.954322 5.656088 -14.951168 -7.640697 -8.445148 -48.223935 -17.530985 16.533327 98.268773 -78.262372 -61.984956 -5.262504 -13.208183 19.825351 16.492897 20.915457 1.975029 34.371306 42.813725 16.580666 17.117017 68.080807 41.346530 4.496676 10.760334 -2.128284 
0.546357 0.230880 0.996931 86.082745 4.062751 96.016195 6.743171 4.661465 -4.450895 3.441725 1.355324 -3.510210 -1.480531 9.615725 -4.846939 0.000000 -0.000000 0.000000 -0.348013 -0.619176 -11.429288 -2.190608 -0.958137 8.681740 5.725724 -3.775669 -6.392530 0.000000 -0.000000 0.000000 -1.277054 2.176611 -1.209446 2.508321 -0.668425 5.907513 1.281060 3.759077 -11.319888 4.516837 8.201940 3.360591 0.975956 7.174201 5.383120 -14.998516 -7.914377 -8.192589 -47.461080 -16.964585 16.591467 91.939374 -79.136724 -56.014590 -6.746685 -13.120717 19.691617 16.636870 21.056204 2.028158 34.132194 42.614566 16.429399 17.500369 68.284971 41.448816 5.000550 10.515059 -1.815780 
0.546499 0.230940 0.996779 86.096190 4.020482 95.927509 6.743281 4.660243 -4.379595 3.374311 1.357352 -3.435176 -1.452248 9.571971 -4.952116 0.000000 -0.000000 0.000000 -0.414289 -0.615029 -11.426678 -2.191292 -1.080815 8.880991 5.696300 -3.675764 -6.471081 0.000000 -0.000000 0.000000 -1.337468 2.081925 -1.173623 2.585872 -0.740622 6.014964 1.393159 3.544596 -11.161570 4.474950 8.473884 3.205446 0.712113 7.369484 4.645783 -14.747328 -7.293423 -8.382103 -47.922935 -16.471862 16.618016 97.861149 -79.071755 -62.056672 -6.313047 -13.273199 19.019145 16.718977 20.922452 2.171781 33.985090 42.931980 16.406971 17.693959 68.219989 41.408818 4.573414 10.709430 -1.746041 
0.546567 0.231074 0.996484 86.200767 4.017703 95.891945 6.751979 4.689255 -4.385443 3.367656 1.194438 -3.414298 -1.478507 9.646554 -4.930113 0.000000 -0.000000 0.000000 -0.392993 -0.600219 -11.500255 -2.231010 -1.081725 9.116498 5.666491 -3.764431 -6.565115 0.000000 -0.000000 0.000000 -1.333086 1.986356 -1.194915 2.589766 -0.635561 6.336801 1.401181 3.595605 -11.250337 4.456222 8.215008 3.171335 0.497227 7.342270 4.237124 -14.560323 -6.481579 -8.816613 -49.032896 -17.087132 16.519987 106.088860 -77.993387 -70.189320 -3.777607 -12.170733 18.591247 16.520311 20.356397 2.163339 34.112387 43.244276 16.467649 18.019279 67.967887 41.991994 3.550491 10.805111 -2.309168 
0.546718 0.231081 0.996493 86.477445 4.035309 95.884679 6.777538 4.611755 -4.421873 3.407027 1.081042 -3.396066 -1.676916 9.538101 -4.962556 0.000000 -0.000000 0.000000 -0.317617 -0.577558 -11.501711 -2.314023 -1.180725 9.269797 5.620598 -3.798696 -6.692968 0.000000 -0.000000 0.000000 -1.232739 1.929934 -1.022213 2.475942 -0.499535 5.707739 1.491610 3.483485 -10.952388 4.659491 8.163621 3.599948 0.200145 7.090816 4.272472 -14.652130 -6.280977 -9.242950 -49.761835 -17.806206 15.959914 108.659879 -75.622387 -72.420638 -2.760337 -12.741592 18.930892 16.365449 20.268626 2.068868 34.492520 42.890209 16.748776 17.951270 67.988846 42.673584 4.250988 10.849131 -2.424733 
0.546890 0.231001 0.996645 86.887434 4.067207 95.874239 6.824415 4.544478 -4.433825 3.446631 0.911517 -3.446506 -1.826802 9.411876 -4.994465 0.000000 -0.000000 0.000000 -0.219618 -0.527805 -11.437120 -2.406726 -1.344630 9.367826 5.501204 -3.923868 -6.845077 0.000000 -0.000000 0.000000 -1.137874 1.867578 -1.023249 2.462257 -0.532494 5.604794 1.570577 3.243057 -10.952960 4.787572 8.285672 3.668923 -0.150538 6.890941 4.484471 -14.629974 -6.215499 -9.435520 -50.030628 -18.208774 15.123918 110.777937 -73.344273 -74.355020 -3.410382 -12.616184 19.631768 16.126344 20.388078 2.037589 34.779888 42.730540 17.036839 17.611927 67.936248 42.796163 4.635528 10.983271 -2.166056 
0.547121 0.230854 0.996803 87.071346 4.076797 95.916266 6.846952 4.503703 -4.408383 3.447585 1.000326 -3.575642 -1.870120 9.201854 -4.986968 0.000000 -0.000000 0.000000 -0.167876 -0.427030 -11.428179 -2.507315 -1.514530 9.398725 5.413045 -3.883140 -6.911818 0.000000 -0.000000 0.000000 -1.070747 1.721054 -1.029350 2.441541 -0.586737 5.517303 1.562105 3.269446 -10.984049 4.922059 8.663435 3.637771 -0.413239 6.666535 4.364333 -14.516183 -5.704460 -9.647313 -50.429066 -18.342844 14.790092 114.271531 -72.573596 -78.043287 -5.271505 -12.612541 20.237255 16.057941 20.251566 2.024126 35.224123 42.781240 17.444520 17.318209 68.400067 42.434543 5.447265 10.678010 -2.387393 
0.547280 0.230886 0.996816 87.065367 4.086429 95.955915 6.825718 4.471144 -4.334381 3.497254 1.138870 -3.745325 -1.854452 9.095869 -4.973635 0.000000 -0.000000 0.000000 -0.174780 -0.349763 -11.418839 -2.535411 -1.641035 9.351160 5.363057 -3.752797 -6.908120 0.000000 -0.000000 0.000000 -1.047457 1.675895 -1.096881 2.445957 -0.545168 5.586548 1.513297 3.349132 -11.049261 4.869032 8.805319 3.459115 -0.552260 6.662264 4.052003 -14.595676 -5.305751 -9.710125 -50.804638 -17.978307 15.205177 119.814826 -72.598289 -83.526303 -6.030835 -12.802836 19.640904 16.229084 20.011653 1.975850 35.472905 42.814997 17.762154 16.933719 68.715251 42.068390 5.810429 10.616069 -2.445773 
0.547349 0.231035 0.996664 86.979405 4.106878 95.968034 6.847112 4.489228 -4.290693 3.479493 1.288794 -3.793244 -1.830213 9.010767 -4.996766 0.000000 -0.000000 0.000000 -0.191993 -0.354187 -11.364283 -2.520989 -1.703041 9.204322 5.343987 -3.602271 -6.858052 0.000000 -0.000000 0.000000 -1.035691 1.808442 -1.237310 2.448862 -0.425357 5.818869 1.481695 3.325228 -11.090905 4.866790 8.716713 3.292588 -0.605392 6.771824 3.815689 -14.963471 -5.196499 -9.588376 -51.506763 -17.507861 15.788469 124.573555 -72.496234 -88.374775 -6.240089 -13.118505 18.865090 16.389786 19.794719 1.922561 35.527406 42.822122 17.820909 16.637127 68.829333 41.827915 5.802574 10.551951 -2.335326 
0.547092 0.231314 0.996639 86.947000 4.040500 95.974224 6.759571 4.465341 -4.356933 3.464566 1.338106 -3.679701 -1.819945 9.004721 -5.049486 0.000000 -0.000000 0.000000 -0.289735 -0.442583 -11.356298 -2.508668 -1.683857 9.140973 5.339925 -3.522918 -6.811049 0.000000 -0.000000 0.000000 -0.956260 1.900463 -1.240568 2.348196 -0.365196 5.919377 1.377274 3.228070 -11.162286 4.828754 8.454955 3.111774 -0.661057 7.052996 3.677990 -15.504826 -5.265053 -9.434950 -52.147219 -17.134657 16.266423 125.610990 -72.756640 -89.182475 -5.979454 -13.081085 18.637121 16.496812 19.675728 1.949556 35.598453 42.940938 17.843977 16.673155 68.713689 41.930501 5.658153 10.396317 -2.484671 
0.546793 0.231438 0.996618 86.896965 3.975334 95.977298 6.705854 4.452298 -4.423051 3.404862 1.335563 -3.584509 -1.782721 9.053449 -5.061660 0.000000 -0.000000 0.000000 -0.369466 -0.511807 -11.406509 -2.483545 -1.627933 9.163867 5.322289 -3.485551 -6.823906 0.000000 -0.000000 0.000000 -0.891192 1.929606 -1.218290 2.263151 -0.361954 5.936322 1.285902 3.173142 -11.186293 4.765926 8.305629 2.890049 -0.682868 7.302856 3.786480 -15.904027 -5.351039 -9.388400 -52.304496 -16.958097 16.571856 122.395768 -73.847938 -85.935850 -5.652918 -13.032380 18.957789 16.623665 19.593627 1.956478 35.604786 43.058771 17.840690 17.211307 68.562355 42.415417 5.592768 10.481459 -2.345605 
0.546495 0.231495 0.996592 86.862152 3.914164 95.982358 6.637043 4.452300 -4.459135 3.389866 1.307084 -3.559913 -1.725637 9.109090 -5.011294 0.000000 -0.000000 0.000000 -0.442253 -0.568208 -11.451133 -2.455592 -1.570271 9.186876 5.370243 -3.528758 -6.838902 0.000000 -0.000000 0.000000 -0.898878 1.920008 -1.228868 2.229568 -0.463299 5.990701 1.202049 3.214412 -11.280914 4.632449 8.206737 2.773656 -0.489852 7.330588 3.859015 -15.938713 -5.590175 -9.301095 -52.040088 -17.002657 16.794232 115.773705 -75.546533 -79.295921 -6.183158 -12.635042 19.378646 16.641401 19.620234 1.962966 35.522068 43.032810 17.747229 18.043009 68.585776 43.146062 5.553224 10.476282 -2.121827 
0.546286 0.231511 0.996436 86.863523 3.894405 95.970759 6.616642 4.431637 -4.445505 3.387181 1.279644 -3.606773 -1.668770 9.132713 -4.942205 0.000000 -0.000000 0.000000 -0.467994 -0.569796 -11.415369 -2.456211 -1.547384 9.104048 5.404407 -3.564392 -6.800684 0.000000 -0.000000 0.000000 -0.998691 1.969677 -1.394611 2.343469 -0.598575 6.381946 1.192235 3.190289 -11.502843 4.436156 8.352670 2.746967 -0.277772 7.390684 3.958380 -15.735188 -6.060969 -9.159242 -51.386657 -17.141933 17.041407 105.489791 -77.192823 -69.421491 -7.534378 -12.515285 19.281601 16.569488 19.739113 1.923042 35.361450 43.021727 17.632238 18.324056 68.540984 43.234083 5.461844 10.593781 -1.622991 
